PathFileType	4	(X/Y/Z)	RBDS013\RBDS013runT45.trc
DataRate	CameraRate	NumFrames	NumMarkers	Units	OrigDataRate	OrigDataStartFrame	OrigNumFrames
150.000000	150.000000	5	33	mm	150.000000	3375	4500
Frame#	Time	L.ASIS			L.Heel.Bottom			L.Heel.Lateral			L.Heel.Top			L.Iliac.Crest			L.MT1			L.MT5			L.PSIS			L.Shank.Bottom.Lateral			L.Shank.Bottom.Medial			L.Shank.Top.Lateral			L.Shank.Top.Medial			L.Thigh.Bottom.Lateral			L.Thigh.Bottom.Medial			L.Thigh.Top.Lateral			L.Thigh.Top.Medial			R.ASIS			R.ASY			R.Heel.Bottom			R.Heel.Lateral			R.Heel.Top			R.Iliac.Crest			R.MT1			R.MT5			R.PSIS			R.Shank.Bottom.Lateral			R.Shank.Bottom.Medial			R.Shank.Top.Lateral			R.Shank.Top.Medial			R.Thigh.Bottom.Lateral			R.Thigh.Bottom.Medial			R.Thigh.Top.Lateral			R.Thigh.Top.Medial			
		X1	Y1	Z1	X2	Y2	Z2	X3	Y3	Z3	X4	Y4	Z4	X5	Y5	Z5	X6	Y6	Z6	X7	Y7	Z7	X8	Y8	Z8	X9	Y9	Z9	X10	Y10	Z10	X11	Y11	Z11	X12	Y12	Z12	X13	Y13	Z13	X14	Y14	Z14	X15	Y15	Z15	X16	Y16	Z16	X17	Y17	Z17	X18	Y18	Z18	X19	Y19	Z19	X20	Y20	Z20	X21	Y21	Z21	X22	Y22	Z22	X23	Y23	Z23	X24	Y24	Z24	X25	Y25	Z25	X26	Y26	Z26	X27	Y27	Z27	X28	Y28	Z28	X29	Y29	Z29	X30	Y30	Z30	X31	Y31	Z31	X32	Y32	Z32	X33	Y33	Z33	

3376	22.5	2348.189135602986	910.8558599058855	931.6435633257291	1721.963175928014	248.3264197326359	1037.56328128624	1745.312974776801	237.2548132203034	990.9557861810048	1762.575570659111	268.610465834565	1025.384366704993	2329.431074687018	991.8503791206781	906.9950307213554	1865.852997877387	94.30316174624814	1056.421386487257	1811.940728652306	96.71873195931919	959.3633881194473	2201.227176032556	985.9764246178805	1003.632431686984	1846.086857017976	294.328611441326	958.4018778269905	1820.839432358533	319.0657660181456	1001.879764294473	1884.479456074323	363.5044007053025	943.1069654601993	1862.069677413222	387.4042691548685	986.3184635673856	2127.850748391754	609.2556789109535	901.4098515176271	2073.717498326841	640.9951012824688	939.1653340113839	2170.83972995928	709.5273441224568	883.5371820742911	2120.624076017824	739.2271794192972	920.5809981631459	2362.274240164787	932.3854657612195	1157.479433828758	2379.440623528811	230.4967082163322	1122.066873885459	2204.063703995127	304.7431761309942	1100.670201865806	2234.059982381193	307.6704143450942	1141.321992075789	2243.312064626794	337.0166604885299	1098.556654397469	2315.907547139498	1005.620855702442	1199.494890359175	2372.590201008228	181.7571239603167	1080.416528603103	2344.419755183881	200.5330944717802	1183.043552422843	2198.196416828509	986.5916852876851	1105.421352695743	2332.566465330823	365.4637846609797	1155.812738294705	2304.882340745719	390.0447548294798	1119.91873816822	2377.320248771246	437.300083681409	1166.488799634116	2346.000379543317	459.5933502527089	1129.344608283928	2482.645523244372	705.4107600576275	1205.884745397605	2442.063130808405	654.1522419153703	1172.785804865812	2390.930734717957	763.6539829271667	1221.848155170285	2351.966839527357	714.0011509469202	1192.673064342564	
3377	22.50666666666667	2350.693887119457	913.6579721775526	932.2986282384817	1707.367158440044	272.0619252658523	1037.227130789859	1729.437030603925	259.9150882510539	990.2358171241782	1749.001226605041	290.1662975668286	1024.408716999086	2334.932734668289	994.9605476568158	907.6940844971347	1843.466998271909	109.3894521635503	1053.225598585661	1788.2545501792	114.9453940082034	957.3381156561703	2204.23627149622	991.3588813448928	1003.209356583338	1831.858160781638	311.4749637049376	956.8997250825843	1808.06657995944	336.7127685831754	1000.884128042343	1872.888418530109	379.0469409976159	941.9287223320518	1851.883834821196	403.3543024467657	985.5100452015593	2124.071980664723	616.4303099878979	900.1131364340408	2070.717124315916	648.9062387133026	938.5048988458262	2168.852391314709	716.020189595	882.8429734456424	2119.394575937457	746.3761585772298	920.5578225103053	2363.592739008025	935.3473253012796	1157.319876793257	2413.337908245213	219.6061972605301	1122.139339252785	2232.388650204027	277.5545722526348	1098.68613083308	2261.45624149104	283.1496816977947	1139.665403035925	2268.417859315714	313.2668466996203	1097.032391823763	2318.198856078438	1009.92545248578	1199.600468751222	2411.372268602837	170.668504606042	1080.359003169159	2380.570927615629	186.6791817736965	1182.62492374374	2200.617271711312	991.7024820338358	1105.205748263361	2353.748286750742	350.1823925338333	1154.978115262593	2324.884621550782	372.0316265290075	1118.188354527519	2391.920130607517	425.6651341252427	1165.775704281463	2359.728970535357	444.9072809678771	1127.726793340679	2483.682112654912	709.5342753484533	1204.524301735936	2442.508277978908	657.3201281941094	1173.408100152576	2391.82225301167	767.5767737806905	1220.898924668821	2352.486942053852	717.4202352260551	1192.940141739885	
3378	22.51333333333334	2352.774874438445	916.4141168885737	932.8203083741715	1693.137853408831	296.816805939823	1037.224021352584	1713.908092541294	283.8540017482484	989.8471823236983	1735.631298850856	312.7865016434739	1023.835600049479	2338.936535792367	997.8727437481564	908.3038669431812	1821.041493460378	126.4647186866072	1050.287030588045	1764.920497000787	135.4811904798965	955.4483706383145	2206.789393864903	996.4348903366604	1003.018570285413	1818.193526174876	329.5820600516451	955.7933903296487	1796.038934544809	355.5009655596171	1000.155376106621	1862.324610619014	395.0404296254578	940.9923839262973	1842.901834394161	419.9280818153021	984.83157938031	2121.912704112316	622.4968611254976	898.8074906808027	2068.990994877215	655.386185536353	937.5215616137988	2167.868870901662	721.6251951957502	882.165826067438	2118.852128563052	752.3360707615652	920.2771409439158	2364.526762461456	937.6155172753677	1157.305406883686	2447.23145122339	210.1603407558493	1122.024880492915	2262.204795177117	251.4354045214677	1096.801105961801	2290.146152230937	259.52147143075	1138.13317870017	2294.73261404269	290.2960417151484	1095.699273017026	2319.95015254236	1013.381583083202	1199.818125636513	2450.101429350499	161.6388440225753	1079.953277570026	2417.035337071824	174.3388099943096	1181.972396902006	2202.762454670803	996.2273442910515	1105.122719603658	2375.326553482068	335.2522827559206	1154.253255603248	2345.594993729789	354.3650742371959	1116.588476727206	2406.6809090775	413.691925361022	1165.312263315681	2373.982064846424	429.9078358847833	1126.345536914404	2483.313995647637	711.4621588026884	1203.402142456581	2441.435453324254	658.6885492558744	1173.880571436867	2391.67297033289	769.8628575495178	1219.956290102919	2351.81615884732	719.5983654555353	1192.806049672022	
3379	22.52	2354.470813267114	919.135812996039	933.1803288956082	1679.48786176915	322.6221658983736	1037.442200099467	1698.988557940153	309.0206939019646	989.702359573395	1722.710924459583	336.4534749826094	1023.567114793645	2341.43512709734	1000.660291923609	908.7872006929869	1798.667641266199	145.4162759425133	1047.709501623447	1742.109667652549	158.1270327742357	953.7477709242438	2208.865780173659	1001.09718165317	1003.047880952485	1805.223651228109	348.6048683745522	955.0397838926991	1784.889420233338	375.333136701006	999.6802597490142	1852.806886561864	411.4544775813356	940.2805683339096	1835.138885504771	437.0472353272046	984.2966276993897	2121.252108812595	627.3769082714277	897.5300834516513	2068.421874143496	660.4373811773271	936.225587582057	2167.856038274927	726.2516210721872	881.4900444594848	2118.963938739152	757.0909801039518	919.6939830787525	2365.102274030045	939.2341516576492	1157.393066759927	2480.775451521135	202.2198552354077	1121.710456935795	2293.169084734412	226.6603681327888	1095.071200890762	2319.853619801586	237.0219379045493	1136.763160909173	2321.960198787534	268.339051192393	1094.604984917741	2321.160442147234	1015.962773877885	1200.118427399924	2488.32543432303	154.7110840443456	1079.189177361613	2453.50402510039	163.594973861867	1181.079197974724	2204.593878844978	1000.065217309694	1105.172246569777	2397.129713465342	320.8032283088324	1153.654361131541	2366.766736323983	337.2145263919427	1115.199761678557	2421.498608455599	401.5031732729394	1165.114897225939	2388.57218892596	414.7633256379799	1125.277803006285	2481.54353636799	711.146757024214	1202.565123703202	2438.879722392011	658.2982827000951	1174.094004169557	2390.521563964914	770.4759423694169	1219.068362837017	2350.010573981174	720.5470921845653	1192.241585104761	
3380	22.52666666666667	2355.83499112901	921.8100364599368	933.3554550738046	1666.731247467646	349.4897734481929	1037.737832096906	1685.028413351707	335.3374137052086	989.6809087909822	1710.57873287129	361.124347385376	1023.474860452353	2342.509117988734	1003.376229439143	909.122494922422	1776.536629123039	166.1121471477277	1045.560074261818	1720.076519515924	182.6454882662505	952.2619671078509	2210.4700671237	1005.230397365333	1003.279690960905	1793.155466127227	368.4535531452054	954.5642288997026	1774.805162858231	396.0700492497248	999.4039010033772	1844.411524590492	428.2299689581415	939.7535253060697	1828.645560867922	454.6088134307425	983.8841395738441	2121.926700835511	631.0541887921702	896.3183323860314	2068.877588554371	664.12552107001	934.6588433088826	2168.752322320473	729.8544783104177	880.7983747958615	2119.692975103113	760.6729878781267	918.7869926092061	2365.366605694055	940.264237158324	1157.528688088112	2513.593387786854	195.8154398573822	1121.204261801117	2324.864767501309	203.5046997620247	1093.524057691769	2350.22689672255	215.8937398846823	1135.568271233367	2349.741381619839	247.6350769515744	1093.769471966948	2321.853554494885	1017.675403561219	1200.46227759096	2525.56561979233	149.8771655700224	1078.085418305342	2489.608072150801	154.5073446438703	1179.951063019781	2206.086768684871	1003.131646083957	1105.348638589999	2418.947329355819	306.9829430206308	1153.190746560924	2388.114398111489	320.7532574557948	1114.083255528576	2436.236233374467	389.2521983231719	1165.178285406008	2403.274409651016	399.6588822491288	1124.573411203707	2478.438042949702	708.6509104763552	1202.04055423516	2434.944360944522	656.2718959079428	1173.963500915454	2388.459124895294	769.4653959235428	1218.273394929357	2347.183813122278	720.3352736789136	1191.252110853885	
